<svg viewBox="0 0 1200 600" xmlns="http://www.w3.org/2000/svg" font-family="'Segoe UI',system-ui,Helvetica,Arial,sans-serif">
<rect x="0" y="0" width="1200" height="600" rx="26" fill="#FFFFFF"/>
<path d="M118.0,304.4 L196.0,284.3 L274.0,321.2 L352.0,270.6 L430.0,312.8 L508.0,259.4 L586.0,291.1 L664.0,258.0 L742.0,278.6 L820.0,248.4 L898.0,275.0 L976.0,245.8 L1054.0,264.0 L1132.0,251.9 L1132.0,362 L118.0,362 Z" fill="#5B86E5" opacity="0.10"/>
<path d="M118.4,303.4 L196.4,285.4 L274.1,321.9 L352.5,269.3 L430.8,313.0 L507.4,258.0 L587.1,291.0 L664.7,259.2 L742.6,279.8 L819.7,249.3 L897.8,276.3 L977.1,244.6 L1052.9,263.2 L1133.4,251.7" fill="none" stroke="#222B36" stroke-width="5" stroke-linecap="round" stroke-linejoin="round"/>
<circle cx="274" cy="321" r="4.5" fill="#fff" stroke="#222B36" stroke-width="3"/>
<circle cx="508" cy="259" r="4.5" fill="#fff" stroke="#222B36" stroke-width="3"/>
<circle cx="742" cy="279" r="4.5" fill="#fff" stroke="#222B36" stroke-width="3"/>
<circle cx="976" cy="246" r="4.5" fill="#fff" stroke="#222B36" stroke-width="3"/>
<path d="M54.3,94.6 Q53.9,94.3 53.8,93.9 Q53.7,93.4 53.1,93.1 Q53.1,92.5 52.9,91.7 Q52.8,90.9 52.6,90.1 Q52.5,89.3 52.4,88.4 Q52.4,87.6 52.5,86.9 Q52.6,86.6 52.8,86.2 Q52.9,85.9 53.1,85.6 Q53.3,85.3 53.4,85.0 Q53.5,84.6 53.4,84.3 Q53.7,84.3 53.7,84.1 Q53.8,83.8 54.1,83.9 Q54.4,83.0 54.7,82.3 Q55.0,81.5 55.4,80.8 Q55.8,80.0 56.2,79.3 Q56.5,78.5 56.9,77.6 Q56.2,76.9 55.9,76.2 Q55.6,75.4 55.4,74.7 Q55.2,73.9 55.2,73.1 Q55.1,72.3 54.8,71.5 Q55.3,70.8 56.0,70.3 Q56.7,69.9 57.5,69.5 Q58.4,69.2 59.3,69.1 Q60.3,68.9 61.4,68.6 Q63.4,68.0 64.9,67.7 Q66.4,67.3 67.9,67.1 Q69.4,66.9 70.9,66.7 Q72.5,66.5 74.6,66.2 Q74.6,66.3 74.7,66.3 Q74.8,66.3 75.0,66.3 Q75.1,66.6 75.4,66.6 Q75.4,66.4 75.4,66.3 Q75.4,66.2 75.4,66.2 Q75.5,66.2 75.6,66.2 Q75.8,66.2 75.9,66.3 Q76.0,66.3 76.0,66.3 Q76.1,66.2 76.1,66.0 Q76.6,66.8 77.3,67.4 Q78.1,67.9 79.0,68.3 Q79.1,68.7 79.1,68.9 Q79.0,69.0 79.0,69.2 Q79.0,69.3 79.0,69.5 Q79.0,69.7 79.0,70.0 Q78.4,71.1 77.6,71.7 Q76.7,72.3 75.8,72.6 Q74.9,73.0 73.8,73.1 Q72.8,73.3 71.7,73.5 Q70.6,73.7 69.6,74.0 Q68.5,74.3 67.4,75.0 Q67.1,74.8 66.8,74.9 Q66.6,74.9 66.3,75.0 Q66.0,75.0 65.6,75.1 Q65.3,75.2 64.8,75.1 Q64.5,75.4 64.1,75.5 Q63.6,75.6 63.2,75.8 Q63.4,76.2 63.4,76.7 Q63.4,77.1 63.5,77.4 Q65.2,77.6 67.2,77.4 Q69.3,77.2 71.3,77.2 Q71.3,77.4 71.3,77.4 Q71.2,77.5 71.2,77.7 Q71.5,78.0 71.9,78.3 Q72.2,78.7 72.5,79.0 Q72.9,79.4 73.2,79.6 Q73.6,79.8 74.1,79.8 Q74.3,80.2 74.4,80.6 Q74.5,81.1 74.3,81.6 Q73.4,82.1 72.7,82.6 Q71.9,83.2 71.1,83.6 Q70.2,84.1 69.3,84.4 Q68.3,84.6 67.2,84.6 Q67.0,84.6 66.8,84.6 Q66.7,84.6 66.5,84.4 Q66.1,84.6 65.4,84.6 Q64.7,84.5 64.3,84.7 Q63.7,84.5 63.0,84.5 Q62.2,84.5 61.7,84.3 Q60.9,85.4 60.3,86.5 Q59.6,87.7 59.1,89.0 Q60.8,89.2 61.9,89.2 Q63.0,89.2 64.0,89.0 Q64.9,88.9 66.0,88.8 Q67.0,88.7 68.5,88.7 Q69.5,88.2 70.8,88.0 Q72.1,87.9 73.3,87.5 Q73.7,87.6 74.0,88.0 Q74.3,88.3 74.5,88.6 Q74.8,89.0 75.1,89.2 Q75.4,89.5 75.8,89.4 Q76.0,89.6 76.1,89.9 Q76.1,90.2 76.2,90.4 Q76.2,90.6 76.4,90.8 Q76.5,90.9 76.8,90.9 Q76.0,92.5 75.1,93.3 Q74.1,94.2 72.9,94.6 Q71.7,95.1 70.3,95.3 Q68.8,95.6 67.0,95.9 Q66.5,96.0 66.2,95.9 Q65.9,95.8 65.6,95.8 Q64.4,96.0 62.9,96.2 Q61.3,96.4 59.7,96.3 Q58.2,96.3 56.7,95.9 Q55.2,95.6 54.3,94.6 Z M92.1,94.9 Q91.5,92.9 90.3,91.1 Q89.2,89.2 88.1,87.9 Q86.5,89.1 85.0,90.6 Q83.5,92.1 82.3,93.9 Q82.2,94.7 82.1,95.3 Q82.0,95.8 81.7,96.2 Q81.4,96.6 80.9,96.8 Q80.4,97.1 79.7,97.4 Q78.4,96.4 77.7,95.0 Q77.1,93.5 77.6,92.1 Q77.6,91.1 78.1,90.1 Q78.6,89.2 79.2,88.3 Q79.9,87.4 80.7,86.6 Q81.4,85.8 82.1,85.1 Q82.2,84.7 82.6,84.4 Q82.9,84.1 83.3,83.8 Q83.7,83.6 84.1,83.2 Q84.5,82.9 84.7,82.5 Q84.4,81.5 83.6,80.6 Q82.8,79.6 82.1,78.6 Q82.0,78.4 81.8,78.5 Q81.6,78.6 81.5,78.4 Q81.6,77.9 81.3,77.3 Q81.0,76.7 80.5,76.3 Q80.7,75.8 80.8,75.2 Q81.0,74.6 80.7,73.8 Q80.7,73.5 80.9,73.2 Q81.0,72.8 81.1,72.6 Q81.2,72.3 81.3,72.1 Q81.4,71.8 81.3,71.6 Q81.8,71.5 82.2,71.6 Q82.6,71.7 83.0,71.9 Q83.3,72.0 83.6,72.1 Q83.9,72.2 84.3,72.1 Q84.2,72.3 84.3,72.4 Q84.3,72.4 84.4,72.5 Q84.5,72.5 84.6,72.6 Q84.6,72.6 84.6,72.8 Q85.3,73.0 86.1,73.6 Q86.8,74.3 87.5,75.1 Q88.2,75.9 88.8,76.7 Q89.4,77.6 89.7,78.0 Q90.6,77.4 91.8,76.5 Q92.9,75.7 94.1,74.8 Q95.3,73.9 96.6,73.1 Q97.8,72.3 99.0,71.8 Q99.7,72.2 100.1,72.6 Q100.4,73.1 100.7,73.6 Q101.0,74.1 101.2,74.7 Q101.4,75.2 101.7,75.6 Q101.4,76.3 101.0,76.8 Q100.7,77.2 100.5,77.8 Q99.6,78.2 98.5,78.9 Q97.4,79.6 95.9,80.7 Q94.4,81.8 92.2,83.6 Q92.7,84.2 93.0,84.7 Q93.4,85.2 93.6,85.6 Q93.8,86.0 93.9,86.4 Q94.3,86.7 94.5,87.0 Q94.8,87.4 95.0,87.8 Q95.2,88.2 95.5,88.5 Q95.8,88.9 96.2,89.1 Q96.5,90.3 96.9,91.2 Q97.4,92.2 97.3,93.2 Q97.0,94.1 96.5,94.7 Q95.9,95.4 95.7,96.0 Q95.3,96.1 95.0,96.2 Q94.6,96.4 94.4,96.6 L92.1,94.9 Z M121.9,83.8 Q121.8,84.3 122.0,84.8 Q122.1,85.2 122.3,85.6 Q122.4,86.1 122.6,86.5 Q122.8,87.0 122.8,87.4 Q122.9,88.0 122.8,88.6 Q122.8,89.3 122.6,89.9 Q122.4,90.6 122.0,91.1 Q121.7,91.6 121.3,91.8 Q120.7,92.6 119.9,93.0 Q119.1,93.4 118.4,93.9 Q117.9,94.2 117.4,94.3 Q116.8,94.5 116.3,94.6 Q115.8,94.8 115.2,95.1 Q114.6,95.4 114.0,95.6 Q113.3,95.8 112.7,95.9 Q112.0,96.0 111.5,96.0 Q110.3,96.4 109.2,96.5 Q108.0,96.7 106.5,96.4 Q105.0,96.6 103.8,96.2 Q102.5,95.9 101.6,95.2 Q100.6,94.5 99.9,93.5 Q99.2,92.5 98.8,91.4 Q98.4,89.1 98.9,87.2 Q99.4,85.3 100.3,83.7 Q101.2,82.1 102.4,80.8 Q103.6,79.4 104.7,78.1 Q104.9,78.2 105.1,78.1 Q105.2,78.0 105.3,77.8 Q105.5,77.6 105.6,77.5 Q105.7,77.3 105.9,77.3 Q106.2,76.7 106.8,76.4 Q107.3,76.1 107.6,75.5 Q108.0,75.4 108.2,75.2 Q108.5,75.1 108.7,74.9 Q108.9,74.7 109.2,74.5 Q109.4,74.3 109.8,74.2 L109.8,73.8 Q110.5,73.5 110.8,73.0 Q111.2,72.6 111.7,72.0 Q112.0,72.0 112.2,72.0 Q112.5,72.0 112.9,71.9 Q113.2,71.3 113.5,71.0 Q113.8,70.7 114.3,70.4 Q114.8,70.7 115.4,70.7 Q116.0,70.8 116.4,71.3 Q116.4,71.7 116.6,71.9 Q116.8,72.1 117.1,72.3 Q117.3,72.5 117.6,72.7 Q117.8,72.9 117.9,73.3 Q118.0,73.3 118.1,73.2 Q118.1,73.1 118.3,73.2 Q118.4,73.7 118.6,73.9 Q118.8,74.1 118.9,74.6 Q118.7,75.0 118.6,75.5 Q118.5,75.9 118.1,76.1 Q118.1,76.4 118.3,76.4 Q118.5,76.4 118.5,76.6 Q118.5,77.0 118.4,77.2 Q119.4,78.7 120.1,80.5 Q120.9,82.3 121.9,83.8 Z M116.8,87.7 Q117.0,87.2 117.2,87.0 Q117.5,86.7 117.5,86.1 Q117.3,85.8 117.3,85.6 Q117.2,85.4 117.2,85.0 Q116.4,83.8 115.7,82.3 Q115.1,80.9 114.3,79.6 Q114.2,79.8 114.0,79.9 Q113.8,80.1 113.5,79.9 Q113.4,80.2 113.2,80.3 Q113.0,80.5 112.8,80.5 Q112.5,80.4 112.3,80.3 Q112.0,80.2 111.8,80.1 Q110.6,81.0 109.5,81.9 Q108.3,82.8 107.4,84.0 Q107.2,84.0 107.2,84.0 Q107.1,84.0 106.9,84.1 Q106.6,84.8 106.1,85.5 Q105.7,86.1 105.2,86.8 Q104.8,87.4 104.4,88.1 Q104.1,88.9 104.1,89.8 Q104.8,90.4 105.7,90.5 Q106.6,90.6 107.6,90.6 Q108.6,90.5 109.6,90.3 Q110.5,90.1 111.3,90.1 Q113.0,89.7 114.2,89.0 Q115.5,88.4 116.8,87.7 Z M153.1,88.7 Q152.1,90.4 150.5,91.4 Q149.0,92.3 147.0,93.0 Q145.1,93.6 143.1,94.1 Q141.0,94.6 139.0,95.4 Q138.5,95.4 138.0,95.4 Q137.6,95.4 137.2,95.5 Q136.8,95.6 136.5,95.6 Q136.1,95.7 135.7,95.7 Q135.5,95.7 135.5,95.8 Q135.4,95.9 135.3,96.0 Q134.6,96.1 134.1,96.1 Q133.5,96.1 133.2,96.1 Q132.7,96.1 132.2,96.2 Q131.7,96.4 131.3,96.3 Q128.2,96.2 126.5,94.2 Q124.8,92.1 124.6,88.6 Q124.6,88.4 124.5,88.3 Q124.4,88.3 124.3,88.2 Q124.3,87.8 124.4,87.5 Q124.5,87.2 124.5,86.8 Q125.5,84.6 126.9,82.6 Q128.2,80.7 130.1,79.3 Q130.3,79.0 130.5,78.8 Q130.8,78.5 130.9,78.3 Q131.1,78.0 131.4,77.9 Q131.6,77.7 132.0,77.6 Q132.8,76.6 134.0,75.8 Q135.2,75.0 136.5,74.3 Q137.8,73.5 139.0,72.8 Q140.3,72.0 141.4,71.1 Q141.8,71.3 142.0,71.2 Q142.2,71.1 142.5,71.2 Q142.8,71.8 143.3,72.0 Q143.8,72.3 144.3,72.6 Q144.8,72.8 145.2,73.2 Q145.7,73.5 145.9,74.1 Q145.7,74.1 145.7,74.3 Q145.7,74.5 145.8,74.7 Q145.9,74.9 145.9,75.1 Q145.8,75.2 145.5,75.2 Q145.6,75.4 145.8,75.5 Q146.0,75.5 146.0,75.7 Q146.0,75.9 145.9,76.0 Q145.8,76.1 145.9,76.4 Q145.1,76.9 144.1,77.4 Q143.1,77.9 142.0,78.5 Q141.0,79.0 139.8,79.6 Q138.7,80.3 137.6,81.1 Q136.5,81.9 135.3,82.9 Q134.2,83.9 133.1,85.0 Q132.1,86.1 131.2,87.2 Q130.2,88.4 129.6,89.5 Q129.7,89.7 129.8,89.8 Q129.9,89.9 129.9,90.1 Q131.2,90.2 132.3,90.1 Q133.5,90.0 134.6,90.2 Q134.7,90.2 134.8,90.0 Q134.8,89.8 135.0,89.8 Q137.3,89.5 139.3,89.0 Q141.2,88.5 143.3,87.9 Q143.0,87.8 142.7,87.7 Q142.5,87.6 142.2,87.5 Q142.0,87.3 142.2,87.2 Q142.5,87.0 142.6,86.9 Q142.1,86.6 141.7,86.1 Q141.4,85.6 141.3,84.8 Q141.5,84.6 141.5,84.3 Q141.5,84.0 141.3,83.8 Q141.1,83.8 141.1,83.8 Q141.0,83.9 141.0,84.0 Q141.0,84.0 141.0,84.1 Q140.9,84.2 140.8,84.1 Q140.8,83.7 140.9,83.5 Q141.1,83.2 141.2,82.9 L144.0,81.0 Q144.4,81.4 145.1,81.7 Q145.7,82.1 146.4,82.5 Q147.1,82.9 147.9,83.3 Q148.6,83.7 149.3,84.0 Q149.8,84.3 150.3,84.7 Q150.7,85.1 151.1,85.5 Q151.5,85.9 152.0,86.4 Q152.4,86.8 153.0,87.0 Q152.9,87.6 153.0,87.9 Q153.1,88.2 153.1,88.7 Z M174.1,73.2 Q174.1,73.5 174.1,73.6 Q174.1,73.7 174.0,73.9 Q174.0,74.0 174.0,74.1 Q174.0,74.3 174.1,74.6 Q173.2,75.9 172.1,76.4 Q171.0,76.9 169.7,77.2 Q168.4,77.4 167.1,77.6 Q165.7,77.9 164.4,78.7 Q163.8,78.5 163.4,78.7 Q163.0,78.9 162.2,78.8 Q161.9,79.1 161.6,79.2 Q161.2,79.3 160.8,79.4 Q161.0,79.7 161.0,80.1 Q161.0,80.5 161.1,80.8 Q162.5,80.9 164.2,80.7 Q165.9,80.6 167.6,80.5 Q167.6,80.7 167.6,80.8 Q167.5,80.8 167.5,81.0 Q167.8,81.2 168.1,81.5 Q168.4,81.8 168.7,82.1 Q168.9,82.4 169.2,82.6 Q169.5,82.7 170.0,82.7 Q170.1,83.0 170.2,83.4 Q170.2,83.8 170.1,84.2 Q169.4,84.6 168.8,85.1 Q168.1,85.6 167.4,85.9 Q166.7,86.3 165.9,86.5 Q165.1,86.8 164.2,86.7 Q164.0,86.7 163.8,86.7 Q163.8,86.7 163.6,86.6 Q163.3,86.8 162.7,86.7 Q162.1,86.6 161.8,86.8 Q161.3,86.6 160.7,86.7 Q160.1,86.7 159.6,86.5 Q158.9,87.4 158.4,88.3 Q157.9,89.3 157.5,90.4 Q158.8,90.6 159.8,90.6 Q160.7,90.5 161.5,90.4 Q162.3,90.3 163.1,90.2 Q164.0,90.1 165.3,90.2 Q166.1,89.7 167.2,89.6 Q168.3,89.4 169.3,89.1 Q169.6,89.2 169.8,89.5 Q170.1,89.8 170.3,90.1 Q170.5,90.4 170.8,90.6 Q171.0,90.8 171.4,90.7 Q171.5,90.9 171.6,91.1 Q171.7,91.3 171.7,91.5 Q171.7,91.7 171.8,91.9 Q171.9,92.0 172.2,92.0 Q171.6,93.3 170.8,94.0 Q170.0,94.7 169.0,95.1 Q168.0,95.5 166.7,95.7 Q165.5,95.9 164.0,96.2 Q163.6,96.2 163.4,96.1 Q163.1,96.0 162.8,96.0 Q161.9,96.2 160.6,96.4 Q159.3,96.6 158.0,96.5 Q156.6,96.5 155.4,96.2 Q154.2,95.9 153.4,95.1 Q153.1,94.8 153.0,94.4 Q152.9,94.1 152.4,93.9 Q152.4,93.3 152.3,92.7 Q152.2,92.0 152.0,91.3 Q151.9,90.6 151.8,89.9 Q151.8,89.2 151.9,88.7 Q152.0,88.1 152.4,87.6 Q152.8,87.1 152.7,86.5 Q152.9,86.5 152.9,86.3 Q153.0,86.1 153.2,86.1 Q153.5,85.4 153.8,84.8 Q154.1,84.1 154.4,83.5 Q154.7,82.9 155.0,82.3 Q155.3,81.6 155.6,80.9 Q155.0,80.3 154.7,79.7 Q154.5,79.1 154.3,78.5 Q154.2,77.8 154.1,77.2 Q154.1,76.5 153.9,75.8 Q154.3,75.2 154.9,74.8 Q155.4,74.4 156.1,74.2 Q156.8,73.9 157.6,73.8 Q158.4,73.6 159.3,73.4 Q161.0,72.9 162.2,72.6 Q163.5,72.3 164.7,72.1 Q166.0,72.0 167.3,71.8 Q168.7,71.6 170.4,71.3 Q170.7,71.7 171.0,71.7 Q171.2,71.3 171.4,71.5 Q171.7,71.6 171.6,71.2 Q172.0,71.9 172.7,72.4 Q173.3,72.8 174.1,73.2 Z M181.4,88.6 Q181.0,88.7 180.9,89.0 Q180.7,89.4 180.6,89.8 Q180.4,90.1 180.3,90.4 Q180.1,90.7 179.8,90.7 Q179.8,91.1 179.6,91.3 Q179.4,91.5 179.3,91.8 Q179.1,92.1 179.0,92.4 Q179.0,92.7 179.1,93.1 Q178.8,93.3 178.7,93.8 Q178.6,94.2 178.5,94.6 Q178.4,95.0 178.2,95.3 Q177.9,95.6 177.3,95.6 Q177.2,95.7 177.2,95.8 Q177.3,95.8 177.4,96.0 Q176.9,96.0 176.7,96.1 Q176.5,96.2 176.2,96.3 Q175.4,96.0 174.9,95.4 Q174.4,94.8 174.0,94.1 Q173.6,93.3 173.3,92.6 Q173.0,91.8 172.7,91.2 Q172.8,90.8 172.8,90.3 Q172.7,89.9 172.5,89.6 Q174.5,85.4 176.8,80.6 Q179.2,75.9 181.3,71.2 Q182.2,71.6 183.1,72.0 Q184.0,72.5 184.8,73.1 Q185.5,73.7 186.0,74.5 Q186.6,75.3 186.7,76.3 Q186.7,76.5 186.6,76.4 Q186.5,76.4 186.4,76.5 Q186.5,76.7 186.6,76.8 Q186.6,76.9 186.6,76.9 Q186.5,77.0 186.5,77.2 Q186.5,77.3 186.7,77.6 Q186.5,77.5 186.4,77.6 Q186.4,77.7 186.2,77.6 Q186.3,78.0 186.3,78.3 Q186.2,78.6 186.1,78.8 Q186.0,79.1 185.9,79.3 Q185.8,79.6 185.9,80.0 Q185.8,80.0 185.7,80.0 Q185.7,80.1 185.6,80.2 Q185.6,80.2 185.5,80.3 Q185.5,80.3 185.4,80.3 Q185.5,81.2 185.4,82.1 Q185.4,83.0 185.4,83.9 Q185.4,84.8 185.4,85.8 Q185.4,86.8 185.7,87.9 Q187.1,87.0 188.0,85.7 Q188.9,84.3 189.4,82.7 Q190.0,81.0 190.3,79.1 Q190.5,77.2 190.9,75.2 Q191.2,74.8 191.4,74.3 Q191.6,73.8 191.8,73.2 Q192.0,72.6 192.1,72.0 Q192.3,71.4 192.5,70.9 Q193.1,71.0 193.6,71.3 Q194.0,71.6 194.4,72.0 Q194.7,72.3 195.1,72.6 Q195.5,72.9 196.1,73.0 Q196.6,73.7 197.0,74.3 Q197.4,75.0 197.6,75.7 Q197.4,76.1 197.3,76.5 Q197.2,76.9 197.0,77.3 Q196.9,77.7 196.7,78.0 Q196.5,78.4 196.1,78.6 Q196.0,79.7 195.8,80.5 Q195.7,81.4 195.5,82.3 Q195.3,83.1 195.2,84.0 Q195.1,84.9 195.1,86.0 Q194.8,87.0 194.4,88.0 Q194.0,89.1 193.8,89.9 Q193.2,90.4 192.8,91.2 Q192.5,91.9 192.0,92.6 Q191.9,92.8 191.8,92.7 Q191.8,92.6 191.6,92.6 Q191.6,92.8 191.6,92.8 Q191.5,92.9 191.5,93.0 Q191.4,93.0 191.4,93.2 Q191.4,93.3 191.4,93.5 Q190.9,93.7 190.4,94.2 Q190.0,94.6 189.5,95.0 Q189.0,95.4 188.3,95.5 Q187.5,95.6 186.4,95.2 Q184.8,94.0 183.5,92.4 Q182.2,90.8 181.4,88.6 Z M220.1,83.8 Q220.1,84.3 220.2,84.8 Q220.3,85.2 220.5,85.6 Q220.7,86.1 220.9,86.5 Q221.0,87.0 221.1,87.4 Q221.2,88.0 221.1,88.6 Q221.0,89.3 220.8,89.9 Q220.6,90.6 220.3,91.1 Q220.0,91.6 219.5,91.8 Q219.0,92.6 218.2,93.0 Q217.3,93.4 216.7,93.9 Q216.2,94.2 215.7,94.3 Q215.1,94.5 214.5,94.6 Q214.1,94.8 213.5,95.1 Q212.9,95.4 212.2,95.6 Q211.6,95.8 210.9,95.9 Q210.3,96.0 209.8,96.0 Q208.6,96.4 207.4,96.5 Q206.3,96.7 204.7,96.4 Q203.3,96.6 202.0,96.2 Q200.8,95.9 199.9,95.2 Q198.9,94.5 198.2,93.5 Q197.5,92.5 197.0,91.4 Q196.7,89.1 197.2,87.2 Q197.7,85.3 198.6,83.7 Q199.5,82.1 200.7,80.8 Q201.9,79.4 203.0,78.1 Q203.2,78.2 203.3,78.1 Q203.5,78.0 203.6,77.8 Q203.7,77.6 203.9,77.5 Q204.0,77.3 204.2,77.3 Q204.5,76.7 205.0,76.4 Q205.6,76.1 205.9,75.5 Q206.3,75.4 206.5,75.2 Q206.8,75.1 207.0,74.9 Q207.2,74.7 207.5,74.5 Q207.7,74.3 208.0,74.2 L208.0,73.8 Q208.8,73.5 209.1,73.0 Q209.4,72.6 209.9,72.0 Q210.3,72.0 210.5,72.0 Q210.7,72.0 211.2,71.9 Q211.5,71.3 211.8,71.0 Q212.0,70.7 212.6,70.4 Q213.0,70.7 213.6,70.7 Q214.2,70.8 214.7,71.3 Q214.7,71.7 214.9,71.9 Q215.1,72.1 215.4,72.3 Q215.6,72.5 215.8,72.7 Q216.1,72.9 216.1,73.3 Q216.3,73.3 216.3,73.2 Q216.4,73.1 216.6,73.2 Q216.7,73.7 216.9,73.9 Q217.0,74.1 217.2,74.6 Q217.0,75.0 216.9,75.5 Q216.8,75.9 216.4,76.1 Q216.3,76.4 216.5,76.4 Q216.7,76.4 216.8,76.6 Q216.8,77.0 216.7,77.2 Q217.6,78.7 218.4,80.5 Q219.2,82.3 220.1,83.8 Z M215.1,87.7 Q215.2,87.2 215.5,87.0 Q215.8,86.7 215.8,86.1 Q215.6,85.8 215.6,85.6 Q215.5,85.4 215.5,85.0 Q214.6,83.8 214.0,82.3 Q213.3,80.9 212.5,79.6 Q212.4,79.8 212.2,79.9 Q212.0,80.1 211.8,79.9 Q211.7,80.2 211.5,80.3 Q211.3,80.5 211.1,80.5 Q210.8,80.4 210.6,80.3 Q210.3,80.2 210.1,80.1 Q208.9,81.0 207.7,81.9 Q206.6,82.8 205.6,84.0 Q205.5,84.0 205.4,84.0 Q205.4,84.0 205.2,84.1 Q204.9,84.8 204.4,85.5 Q203.9,86.1 203.5,86.8 Q203.0,87.4 202.7,88.1 Q202.4,88.9 202.3,89.8 Q203.0,90.4 204.0,90.5 Q204.9,90.6 205.9,90.6 Q206.9,90.5 207.8,90.3 Q208.8,90.1 209.6,90.1 Q211.3,89.7 212.5,89.0 Q213.7,88.4 215.1,87.7 Z M245.7,72.9 Q245.8,73.8 246.0,74.5 Q246.2,75.1 246.4,75.7 Q246.6,76.3 246.8,76.8 Q247.0,77.4 247.1,78.2 Q246.8,79.2 246.6,80.1 Q246.5,81.0 246.3,82.0 Q245.7,83.4 245.1,84.5 Q244.4,85.6 244.1,86.4 Q243.9,86.6 243.7,86.9 Q243.6,87.1 243.4,87.4 Q243.4,87.5 243.2,87.8 Q243.1,88.0 243.0,88.1 L242.2,87.8 L242.1,88.8 L241.5,89.0 L241.1,89.5 Q240.3,90.8 239.5,91.7 Q238.6,92.6 237.5,93.3 Q236.5,94.1 235.1,94.7 Q233.7,95.3 232.0,96.0 Q231.4,95.9 230.8,95.9 Q230.3,95.9 229.9,95.8 Q229.1,95.8 228.0,95.7 Q227.9,95.4 227.6,95.3 Q227.4,95.2 227.2,95.2 Q226.5,94.8 226.1,94.2 Q225.8,93.6 225.5,92.8 Q225.3,92.4 225.1,92.0 Q224.9,91.6 224.6,91.2 L225.3,91.0 L224.4,90.0 Q224.3,89.9 224.2,89.8 Q224.1,89.7 224.0,89.6 L224.0,88.9 Q223.9,86.1 223.9,83.8 Q223.9,81.5 224.5,79.7 L224.5,79.2 Q224.6,78.3 224.7,77.7 Q224.9,77.2 225.0,76.6 Q225.1,75.7 225.3,75.0 Q225.9,74.8 226.2,74.5 Q226.4,74.1 226.7,73.9 Q227.2,73.8 227.4,74.0 Q227.6,74.2 227.8,74.7 Q228.0,75.0 228.3,75.5 Q228.6,75.9 229.2,76.2 Q229.3,76.5 229.5,76.8 Q229.6,77.2 229.8,77.6 Q230.1,78.3 230.4,79.0 Q230.6,79.8 230.7,80.5 Q230.3,81.2 230.0,82.3 Q229.8,83.3 229.8,84.3 Q229.7,85.3 229.8,86.3 Q229.9,87.2 230.1,87.9 L230.4,88.4 L231.1,88.3 Q232.3,88.0 233.3,87.6 Q234.3,87.2 235.1,86.7 Q236.0,86.2 236.7,85.5 Q237.5,84.8 238.4,83.8 Q239.2,82.9 239.8,81.7 Q240.5,80.5 240.9,79.2 Q241.3,77.9 241.5,76.6 Q241.8,75.4 241.9,74.2 Q242.5,74.0 242.5,73.3 L242.5,72.8 Q242.3,72.6 242.5,72.2 Q242.7,71.5 243.6,71.1 Q244.2,71.5 244.8,72.0 Q245.3,72.4 245.7,72.9 Z M246.7,77.8 Q247.0,76.9 247.6,76.3 Q248.3,75.7 249.0,75.3 Q249.8,74.8 250.6,74.6 Q251.4,74.3 252.1,74.1 Q253.7,73.4 255.6,72.8 Q257.4,72.1 259.3,71.6 Q261.3,71.2 263.3,71.0 Q265.3,70.9 267.6,71.5 Q267.7,71.9 267.9,72.3 Q268.2,72.6 268.4,73.0 Q268.7,73.4 268.9,73.7 Q269.1,74.1 269.1,74.4 Q269.5,74.8 269.8,75.2 Q270.0,75.6 269.9,76.3 Q269.5,76.7 269.1,76.9 Q268.7,77.2 268.2,77.4 Q266.7,77.0 265.2,77.2 Q263.7,77.3 262.4,77.4 Q262.1,77.0 261.6,77.0 Q261.1,77.0 260.5,77.2 Q260.0,77.3 259.4,77.5 Q258.9,77.6 258.4,77.6 Q258.0,77.9 257.4,78.0 Q256.8,78.1 256.1,78.2 Q256.1,78.4 256.2,78.4 Q256.3,78.5 256.2,78.7 Q256.5,79.0 256.9,79.1 Q257.3,79.2 257.7,79.3 Q258.1,79.5 258.4,79.6 Q258.8,79.8 258.9,80.2 Q259.5,80.2 259.9,80.5 Q260.4,80.8 260.7,81.2 Q260.9,81.6 261.1,82.1 Q261.2,82.5 261.2,82.9 Q261.4,83.2 261.5,83.2 Q261.7,83.2 261.9,83.4 Q262.0,83.9 262.5,84.4 Q263.0,85.0 263.3,85.6 Q263.3,86.6 263.4,87.4 Q263.4,88.2 263.1,89.0 Q262.5,90.5 261.4,91.7 Q260.3,92.9 259.0,93.8 Q257.6,94.7 256.1,95.4 Q254.5,96.0 253.1,96.4 Q252.9,96.4 252.8,96.4 Q252.6,96.5 252.7,96.2 Q252.4,96.5 252.0,96.6 Q251.6,96.7 251.1,96.7 Q250.7,96.6 250.2,96.6 Q249.8,96.6 249.4,96.6 Q249.1,96.4 248.8,96.1 Q248.6,95.8 248.5,95.4 Q248.3,95.4 248.3,95.2 Q248.3,95.0 248.2,95.0 Q248.4,94.6 248.4,94.6 Q248.4,94.5 248.3,94.5 Q248.2,94.4 248.1,94.4 Q248.0,94.3 248.1,94.2 Q248.2,93.9 248.2,93.4 Q248.1,93.0 248.1,92.6 Q248.1,92.1 248.2,91.7 Q248.3,91.3 248.7,91.1 Q250.1,91.2 251.4,91.0 Q252.6,90.7 253.7,90.2 Q254.8,89.7 255.8,89.2 Q256.8,88.6 257.7,88.1 Q257.9,87.8 258.1,87.5 Q258.3,87.3 258.6,87.1 Q258.8,86.9 259.0,86.6 Q259.2,86.4 259.3,86.0 Q259.3,85.7 259.1,85.7 Q259.0,85.6 259.0,85.4 L258.5,85.3 Q257.7,84.8 256.8,84.5 Q255.8,84.2 255.1,83.8 Q254.7,84.1 254.3,84.0 Q253.9,83.8 253.3,83.7 Q251.9,83.6 250.6,83.4 Q249.4,83.2 248.2,82.7 Q248.1,82.5 248.0,82.3 Q247.9,82.2 247.5,82.3 Q247.3,81.9 247.0,81.6 Q246.8,81.3 246.6,81.0 Q246.7,80.5 246.7,80.1 Q246.8,79.8 246.5,79.5 Q246.6,78.9 246.7,78.6 Q246.8,78.3 246.7,77.8 Z" fill="#E8731C"/>
<text x="54" y="118" font-size="14.5" fill="#9A7A55" font-style="italic">external info, flows in</text>
<path d="M511.0,121.4 L527.1,122.4 L524.3,121.5 L531.4,124.2 L537.6,126.9 L539.5,130.4 L542.8,134.6 L546.1,138.8 L547.9,143.0 L545.5,161.3 L545.9,175.3 L545.6,175.6 L545.6,181.4 L545.7,186.5 L540.6,191.7 L537.1,193.2 L532.6,197.3 L525.2,197.1 L510.5,196.5 L494.6,197.4 L493.8,197.9 L487.4,197.0 L484.5,194.8 L480.5,191.9 L475.6,185.0 L472.4,179.8 L471.9,177.0 L474.4,161.1 L474.4,144.1 L474.1,144.5 L475.3,137.0 L476.8,132.9 L478.3,130.2 L483.5,126.7 L488.0,123.3 L494.7,123.6 Z" fill="#FFFCF8" stroke="none"/><path d="M511.0,121.4 L527.1,122.4 L524.3,121.5 L531.4,124.2 L537.6,126.9 L539.5,130.4 L542.8,134.6 L546.1,138.8 L547.9,143.0 L545.5,161.3 L545.9,175.3 L545.6,175.6 L545.6,181.4 L545.7,186.5 L540.6,191.7 L537.1,193.2 L532.6,197.3 L525.2,197.1 L510.5,196.5 L494.6,197.4 L493.8,197.9 L487.4,197.0 L484.5,194.8 L480.5,191.9 L475.6,185.0 L472.4,179.8 L471.9,177.0 L474.4,161.1 L474.4,144.1 L474.1,144.5 L475.3,137.0 L476.8,132.9 L478.3,130.2 L483.5,126.7 L488.0,123.3 L494.7,123.6 Z" fill="none" stroke="#E8731C" stroke-width="3.5" stroke-linejoin="round" stroke-linecap="round"/><path d="M511.4,124.0 L524.8,122.3 L526.3,122.9 L531.1,122.0 L536.8,127.2 L542.0,128.4 L545.6,131.9 L546.8,137.6 L548.2,143.2 L547.4,159.9 L545.9,176.2 L546.5,176.3 L545.0,180.4 L544.2,184.9 L540.5,191.8 L535.0,195.7 L531.9,194.9 L527.1,198.4 L509.6,195.9 L494.6,197.2 L493.7,196.0 L489.2,196.3 L483.2,193.4 L478.5,192.5 L474.4,184.9 L472.9,180.4 L473.7,176.7 L472.2,160.9 L471.5,144.3 L474.6,142.7 L473.5,137.1 L476.0,135.1 L478.6,127.9 L482.6,124.6 L487.4,125.2 L493.6,121.5 Z" fill="none" stroke="#E8731C" stroke-width="2.1" stroke-linejoin="round" stroke-linecap="round" opacity="0.5"/>
<g transform="translate(510,159) scale(1.0)" stroke="#E8731C" stroke-width="3" fill="none" stroke-linecap="round" stroke-linejoin="round"><rect x="-13" y="-15" width="26" height="30" rx="3"/><line x1="-7" y1="-8" x2="7" y2="-8"/><line x1="-7" y1="-1" x2="7" y2="-1"/><line x1="-7" y1="6" x2="2" y2="6"/></g>
<text x="510" y="112" font-size="15" font-weight="700" fill="#E8731C" text-anchor="middle">News</text>
<path d="M508.5,197.5 L510.4,202.5 L508.5,208.5 L509.7,212.3 L509.6,219.7 L508.5,221.9 L508.1,226.9 L508.4,234.7 L509.3,239.5 L508.5,244.0 L510.0,248.0" fill="none" stroke="#E8731C" stroke-width="3" stroke-linecap="round" stroke-dasharray="1 8"/><path d="M502.6,242.0 L510.0,247.2 L510.8,238.2" fill="none" stroke="#E8731C" stroke-width="3" stroke-linecap="round" stroke-linejoin="round"/>
<path d="M730.5,123.7 L747.6,122.0 L744.5,124.1 L750.9,123.3 L757.6,124.7 L762.2,129.1 L762.7,134.9 L766.5,137.1 L768.2,144.9 L767.8,160.5 L768.7,174.3 L768.6,176.5 L765.4,181.8 L763.6,187.0 L761.5,190.9 L755.1,193.8 L750.8,197.1 L747.5,197.9 L730.1,195.9 L714.7,196.2 L715.7,195.9 L710.2,194.6 L704.5,193.7 L699.4,190.6 L695.2,186.3 L694.8,180.9 L692.5,177.0 L691.9,159.5 L693.1,144.1 L691.9,144.9 L693.7,137.2 L695.3,132.0 L698.6,127.8 L702.7,126.0 L709.2,123.0 L713.9,123.0 Z" fill="#FFFCF8" stroke="none"/><path d="M730.5,123.7 L747.6,122.0 L744.5,124.1 L750.9,123.3 L757.6,124.7 L762.2,129.1 L762.7,134.9 L766.5,137.1 L768.2,144.9 L767.8,160.5 L768.7,174.3 L768.6,176.5 L765.4,181.8 L763.6,187.0 L761.5,190.9 L755.1,193.8 L750.8,197.1 L747.5,197.9 L730.1,195.9 L714.7,196.2 L715.7,195.9 L710.2,194.6 L704.5,193.7 L699.4,190.6 L695.2,186.3 L694.8,180.9 L692.5,177.0 L691.9,159.5 L693.1,144.1 L691.9,144.9 L693.7,137.2 L695.3,132.0 L698.6,127.8 L702.7,126.0 L709.2,123.0 L713.9,123.0 Z" fill="none" stroke="#E8731C" stroke-width="3.5" stroke-linejoin="round" stroke-linecap="round"/><path d="M730.2,123.3 L745.9,123.5 L745.9,122.9 L750.3,122.5 L756.9,124.4 L761.4,129.3 L763.7,134.4 L765.9,138.3 L768.0,143.9 L767.1,158.3 L767.4,175.3 L765.9,176.5 L765.9,180.6 L763.9,185.6 L760.5,191.7 L754.9,195.5 L752.0,196.8 L744.8,197.5 L728.3,197.2 L713.6,198.4 L712.6,197.0 L708.8,197.9 L703.3,193.9 L699.2,191.8 L696.5,186.0 L694.4,181.4 L693.7,176.0 L691.8,158.9 L694.5,142.4 L693.3,144.9 L693.4,139.6 L695.9,135.0 L700.4,127.8 L704.3,125.2 L709.2,124.9 L714.6,124.1 Z" fill="none" stroke="#E8731C" stroke-width="2.1" stroke-linejoin="round" stroke-linecap="round" opacity="0.5"/>
<g transform="translate(730,159) scale(1.0)" stroke="#E8731C" stroke-width="3" fill="none" stroke-linecap="round" stroke-linejoin="round"><circle cx="-4" cy="-6" r="7"/><path d="M-12,12 a9,9 0 0 1 0,-18 a11,11 0 0 1 21,5 a8,8 0 0 1 -1,13 z" fill="#E8731C" fill-opacity="0.18"/></g>
<text x="730" y="112" font-size="15" font-weight="700" fill="#E8731C" text-anchor="middle">Weather</text>
<path d="M730.7,200.1 L730.1,205.4 L729.6,213.7 L729.2,216.6 L729.0,223.4 L729.3,229.8 L728.4,236.3 L729.2,243.7 L728.8,248.0 L728.8,256.2 L729.6,263.3" fill="none" stroke="#E8731C" stroke-width="3" stroke-linecap="round" stroke-dasharray="1 8"/><path d="M724.1,255.6 L730.0,262.4 L732.9,253.9" fill="none" stroke="#E8731C" stroke-width="3" stroke-linecap="round" stroke-linejoin="round"/>
<path d="M948.6,123.9 L967.6,122.7 L967.5,122.8 L971.8,125.1 L975.5,124.2 L979.8,127.6 L984.0,132.2 L984.9,137.9 L986.7,145.3 L985.3,160.5 L988.4,176.8 L985.8,174.8 L985.8,179.8 L985.8,187.4 L981.9,191.4 L978.2,193.8 L969.9,195.8 L965.8,198.0 L948.3,198.2 L933.5,195.4 L934.4,198.3 L928.9,197.1 L923.3,193.8 L917.5,192.1 L916.1,185.3 L912.7,181.6 L913.7,177.5 L912.8,160.2 L913.7,142.5 L914.6,143.6 L915.4,139.8 L917.0,132.3 L919.0,129.1 L922.9,125.8 L927.9,124.0 L934.7,123.6 Z" fill="#FFFCF8" stroke="none"/><path d="M948.6,123.9 L967.6,122.7 L967.5,122.8 L971.8,125.1 L975.5,124.2 L979.8,127.6 L984.0,132.2 L984.9,137.9 L986.7,145.3 L985.3,160.5 L988.4,176.8 L985.8,174.8 L985.8,179.8 L985.8,187.4 L981.9,191.4 L978.2,193.8 L969.9,195.8 L965.8,198.0 L948.3,198.2 L933.5,195.4 L934.4,198.3 L928.9,197.1 L923.3,193.8 L917.5,192.1 L916.1,185.3 L912.7,181.6 L913.7,177.5 L912.8,160.2 L913.7,142.5 L914.6,143.6 L915.4,139.8 L917.0,132.3 L919.0,129.1 L922.9,125.8 L927.9,124.0 L934.7,123.6 Z" fill="none" stroke="#E8731C" stroke-width="3.5" stroke-linejoin="round" stroke-linecap="round"/><path d="M948.9,123.4 L965.8,122.4 L964.4,123.8 L972.9,123.0 L977.5,127.3 L981.6,129.1 L982.8,134.6 L985.9,136.9 L985.9,144.3 L986.0,160.3 L985.8,175.8 L986.2,176.1 L985.4,182.2 L985.7,188.0 L979.3,192.4 L975.7,195.5 L972.0,195.1 L967.0,197.7 L950.4,198.7 L935.2,195.7 L934.0,196.1 L928.8,194.6 L924.8,193.6 L920.6,191.4 L915.8,186.1 L915.1,180.6 L914.7,176.3 L913.1,159.8 L912.5,144.2 L914.0,144.4 L913.4,138.0 L916.2,133.6 L918.1,129.8 L924.4,126.6 L929.8,123.5 L933.7,121.5 Z" fill="none" stroke="#E8731C" stroke-width="2.1" stroke-linejoin="round" stroke-linecap="round" opacity="0.5"/>
<g transform="translate(950,159) scale(1.0)" stroke="#E8731C" stroke-width="3" fill="none" stroke-linecap="round" stroke-linejoin="round"><rect x="-13" y="-12" width="26" height="26" rx="3"/><line x1="-13" y1="-4" x2="13" y2="-4"/><line x1="-6" y1="-16" x2="-6" y2="-9"/><line x1="6" y1="-16" x2="6" y2="-9"/><circle cx="0" cy="5" r="3" fill="#E8731C" stroke="none"/></g>
<text x="950" y="112" font-size="15" font-weight="700" fill="#E8731C" text-anchor="middle">Events</text>
<path d="M949.4,198.9 L949.7,203.1 L949.6,208.3 L949.0,212.6 L948.0,215.6 L949.3,219.3 L951.0,224.4 L951.2,231.3 L949.0,235.4 L951.2,238.9 L948.1,242.4" fill="none" stroke="#E8731C" stroke-width="3" stroke-linecap="round" stroke-dasharray="1 8"/><path d="M948.2,233.7 L950.0,242.5 L956.7,236.6" fill="none" stroke="#E8731C" stroke-width="3" stroke-linecap="round" stroke-linejoin="round"/>
<path d="M54.3,518.6 Q53.9,518.3 53.8,517.9 Q53.7,517.4 53.1,517.1 Q53.1,516.5 52.9,515.7 Q52.8,514.9 52.6,514.1 Q52.5,513.3 52.4,512.4 Q52.4,511.6 52.5,510.9 Q52.6,510.6 52.8,510.2 Q52.9,509.9 53.1,509.6 Q53.3,509.3 53.4,509.0 Q53.5,508.6 53.4,508.3 Q53.7,508.3 53.7,508.1 Q53.8,507.8 54.1,507.9 Q54.4,507.0 54.7,506.3 Q55.0,505.5 55.4,504.8 Q55.8,504.0 56.2,503.3 Q56.5,502.5 56.9,501.6 Q56.2,500.9 55.9,500.2 Q55.6,499.4 55.4,498.7 Q55.2,497.9 55.2,497.1 Q55.1,496.3 54.8,495.5 Q55.3,494.8 56.0,494.3 Q56.7,493.9 57.5,493.5 Q58.4,493.2 59.3,493.1 Q60.3,492.9 61.4,492.6 Q63.4,492.0 64.9,491.7 Q66.4,491.3 67.9,491.1 Q69.4,490.9 70.9,490.7 Q72.5,490.5 74.6,490.2 Q74.6,490.3 74.7,490.3 Q74.8,490.3 75.0,490.3 Q75.1,490.6 75.4,490.6 Q75.4,490.4 75.4,490.3 Q75.4,490.2 75.4,490.2 Q75.5,490.2 75.6,490.2 Q75.8,490.2 75.9,490.3 Q76.0,490.3 76.0,490.3 Q76.1,490.2 76.1,490.0 Q76.6,490.8 77.3,491.4 Q78.1,491.9 79.0,492.3 Q79.1,492.7 79.1,492.9 Q79.0,493.0 79.0,493.2 Q79.0,493.3 79.0,493.5 Q79.0,493.7 79.0,494.0 Q78.4,495.1 77.6,495.7 Q76.7,496.3 75.8,496.6 Q74.9,497.0 73.8,497.1 Q72.8,497.3 71.7,497.5 Q70.6,497.7 69.6,498.0 Q68.5,498.3 67.4,499.0 Q67.1,498.8 66.8,498.9 Q66.6,498.9 66.3,499.0 Q66.0,499.0 65.6,499.1 Q65.3,499.2 64.8,499.1 Q64.5,499.4 64.1,499.5 Q63.6,499.6 63.2,499.8 Q63.4,500.2 63.4,500.7 Q63.4,501.1 63.5,501.4 Q65.2,501.6 67.2,501.4 Q69.3,501.2 71.3,501.2 Q71.3,501.4 71.3,501.4 Q71.2,501.5 71.2,501.7 Q71.5,502.0 71.9,502.3 Q72.2,502.7 72.5,503.0 Q72.9,503.4 73.2,503.6 Q73.6,503.8 74.1,503.8 Q74.3,504.2 74.4,504.6 Q74.5,505.1 74.3,505.6 Q73.4,506.1 72.7,506.6 Q71.9,507.2 71.1,507.6 Q70.2,508.1 69.3,508.4 Q68.3,508.6 67.2,508.6 Q67.0,508.6 66.8,508.6 Q66.7,508.6 66.5,508.4 Q66.1,508.6 65.4,508.6 Q64.7,508.5 64.3,508.7 Q63.7,508.5 63.0,508.5 Q62.2,508.5 61.7,508.3 Q60.9,509.4 60.3,510.5 Q59.6,511.7 59.1,513.0 Q60.8,513.2 61.9,513.2 Q63.0,513.2 64.0,513.0 Q64.9,512.9 66.0,512.8 Q67.0,512.7 68.5,512.7 Q69.5,512.2 70.8,512.0 Q72.1,511.9 73.3,511.5 Q73.7,511.6 74.0,512.0 Q74.3,512.3 74.5,512.6 Q74.8,513.0 75.1,513.2 Q75.4,513.5 75.8,513.4 Q76.0,513.6 76.1,513.9 Q76.1,514.2 76.2,514.4 Q76.2,514.6 76.4,514.8 Q76.5,514.9 76.8,514.9 Q76.0,516.5 75.1,517.3 Q74.1,518.2 72.9,518.6 Q71.7,519.1 70.3,519.3 Q68.8,519.6 67.0,519.9 Q66.5,520.0 66.2,519.9 Q65.9,519.8 65.6,519.8 Q64.4,520.0 62.9,520.2 Q61.3,520.4 59.7,520.3 Q58.2,520.3 56.7,519.9 Q55.2,519.6 54.3,518.6 Z M86.3,512.6 Q86.0,512.7 85.8,513.0 Q85.6,513.4 85.5,513.8 Q85.4,514.1 85.2,514.4 Q85.1,514.7 84.8,514.7 Q84.8,515.1 84.6,515.3 Q84.4,515.5 84.2,515.8 Q84.1,516.1 84.0,516.4 Q83.9,516.7 84.1,517.1 Q83.7,517.3 83.7,517.8 Q83.6,518.2 83.5,518.6 Q83.4,519.0 83.1,519.3 Q82.9,519.6 82.2,519.6 Q82.1,519.7 82.2,519.8 Q82.3,519.8 82.3,520.0 Q81.9,520.0 81.7,520.1 Q81.4,520.2 81.1,520.3 Q80.3,520.0 79.8,519.4 Q79.3,518.8 78.9,518.1 Q78.6,517.3 78.2,516.6 Q77.9,515.8 77.7,515.2 Q77.8,514.8 77.7,514.3 Q77.6,513.9 77.4,513.6 Q79.4,509.4 81.8,504.6 Q84.1,499.9 86.2,495.2 Q87.1,495.6 88.1,496.0 Q89.0,496.5 89.7,497.1 Q90.5,497.7 91.0,498.5 Q91.5,499.3 91.7,500.3 Q91.6,500.5 91.5,500.4 Q91.4,500.4 91.3,500.5 Q91.5,500.7 91.5,500.8 Q91.5,500.9 91.5,500.9 Q91.5,501.0 91.5,501.2 Q91.5,501.3 91.6,501.6 Q91.4,501.5 91.4,501.6 Q91.3,501.7 91.1,501.6 Q91.3,502.0 91.2,502.3 Q91.2,502.6 91.0,502.8 Q90.9,503.1 90.8,503.3 Q90.8,503.6 90.9,504.0 Q90.8,504.0 90.7,504.0 Q90.6,504.1 90.6,504.2 Q90.6,504.2 90.5,504.3 Q90.4,504.3 90.3,504.3 Q90.4,505.2 90.4,506.1 Q90.4,507.0 90.3,507.9 Q90.3,508.8 90.4,509.8 Q90.4,510.8 90.6,511.9 Q92.1,511.0 93.0,509.7 Q93.8,508.3 94.4,506.7 Q94.9,505.0 95.2,503.1 Q95.5,501.2 95.8,499.2 Q96.2,498.8 96.4,498.3 Q96.6,497.8 96.8,497.2 Q96.9,496.6 97.1,496.0 Q97.2,495.4 97.5,494.9 Q98.1,495.0 98.5,495.3 Q98.9,495.6 99.3,496.0 Q99.7,496.3 100.1,496.6 Q100.5,496.9 101.1,497.0 Q101.6,497.7 102.0,498.3 Q102.4,499.0 102.5,499.7 Q102.3,500.1 102.2,500.5 Q102.1,500.9 102.0,501.3 Q101.9,501.7 101.7,502.0 Q101.5,502.4 101.1,502.6 Q101.0,503.7 100.8,504.5 Q100.6,505.4 100.4,506.3 Q100.2,507.1 100.1,508.0 Q100.0,508.9 100.0,510.0 Q99.7,511.0 99.3,512.0 Q99.0,513.1 98.8,513.9 Q98.1,514.4 97.8,515.2 Q97.4,515.9 97.0,516.6 Q96.8,516.8 96.8,516.7 Q96.8,516.6 96.5,516.6 Q96.6,516.8 96.5,516.8 Q96.5,516.9 96.4,517.0 Q96.4,517.0 96.3,517.2 Q96.3,517.3 96.4,517.5 Q95.8,517.7 95.4,518.2 Q94.9,518.6 94.4,519.0 Q93.9,519.4 93.2,519.5 Q92.5,519.6 91.4,519.2 Q89.7,518.0 88.4,516.4 Q87.1,514.8 86.3,512.6 Z M121.4,509.1 Q121.4,509.3 121.4,509.4 Q121.3,509.5 121.3,509.7 Q121.2,509.8 121.2,510.0 Q121.2,510.1 121.2,510.4 Q120.0,512.6 118.2,514.0 Q116.3,515.5 114.1,516.6 Q111.9,517.7 109.5,518.6 Q107.1,519.6 104.9,520.6 Q103.9,520.4 103.4,519.8 Q102.9,519.2 102.6,518.5 Q102.4,517.7 102.3,516.8 Q102.1,515.9 102.1,514.9 Q102.2,514.5 102.4,514.2 Q102.6,513.9 102.6,513.3 Q103.0,512.3 103.3,511.2 Q103.6,510.2 103.7,509.2 Q103.8,508.8 104.1,508.7 Q104.3,506.8 104.2,504.8 Q104.0,502.8 103.5,501.0 Q103.5,500.6 103.6,500.4 Q103.7,500.3 103.6,500.2 Q103.5,499.9 103.8,499.9 Q104.1,499.9 104.3,499.9 Q104.3,499.2 104.1,498.6 Q103.9,498.0 103.7,497.3 Q104.0,496.6 104.1,496.1 Q104.1,495.5 104.4,495.0 Q106.6,495.7 108.6,496.7 Q110.6,497.7 112.6,498.1 Q114.0,499.2 115.6,500.2 Q117.1,501.2 118.4,502.5 Q119.6,503.7 120.5,505.3 Q121.3,506.9 121.4,509.1 Z M111.8,511.3 Q112.7,511.0 113.5,510.6 Q114.4,510.2 115.1,509.8 Q115.8,509.3 116.3,508.7 Q116.9,508.1 117.3,507.2 Q117.0,506.7 116.6,506.4 Q116.2,506.0 115.8,505.6 Q115.4,505.3 115.0,504.9 Q114.6,504.6 114.4,504.0 Q113.9,503.9 113.5,503.7 Q113.1,503.5 112.7,503.3 Q112.3,503.1 111.9,502.8 Q111.4,502.6 110.9,502.6 Q110.0,502.2 109.3,502.0 Q108.6,501.8 108.2,501.4 Q107.9,501.4 107.7,501.6 Q108.1,503.1 108.3,504.5 Q108.6,505.8 108.6,507.2 Q108.6,508.5 108.4,509.9 Q108.3,511.4 108.0,513.0 Q108.4,513.0 108.7,512.8 Q109.1,512.7 109.4,512.5 Q109.8,512.4 110.2,512.2 Q110.5,512.1 111.1,512.1 Q111.2,511.8 111.4,511.6 Q111.6,511.5 111.8,511.3 Z M145.7,507.8 Q145.7,508.3 145.8,508.8 Q145.9,509.2 146.1,509.6 Q146.3,510.1 146.5,510.5 Q146.6,511.0 146.7,511.4 Q146.8,512.0 146.7,512.6 Q146.6,513.3 146.4,513.9 Q146.2,514.6 145.9,515.1 Q145.6,515.6 145.1,515.8 Q144.6,516.6 143.7,517.0 Q142.9,517.4 142.2,517.9 Q141.8,518.2 141.2,518.3 Q140.7,518.5 140.1,518.6 Q139.7,518.8 139.1,519.1 Q138.5,519.4 137.8,519.6 Q137.2,519.8 136.5,519.9 Q135.9,520.0 135.4,520.0 Q134.2,520.4 133.0,520.5 Q131.9,520.7 130.3,520.4 Q128.9,520.6 127.6,520.2 Q126.4,519.9 125.4,519.2 Q124.5,518.5 123.8,517.5 Q123.1,516.5 122.6,515.4 Q122.3,513.1 122.8,511.2 Q123.3,509.3 124.2,507.7 Q125.1,506.1 126.3,504.8 Q127.4,503.4 128.5,502.1 Q128.8,502.2 128.9,502.1 Q129.1,502.0 129.2,501.8 Q129.3,501.6 129.5,501.5 Q129.6,501.3 129.8,501.3 Q130.1,500.7 130.6,500.4 Q131.2,500.1 131.5,499.5 Q131.9,499.4 132.1,499.2 Q132.3,499.1 132.6,498.9 Q132.8,498.7 133.0,498.5 Q133.3,498.3 133.6,498.2 L133.6,497.8 Q134.3,497.5 134.7,497.0 Q135.0,496.6 135.5,496.0 Q135.9,496.0 136.1,496.0 Q136.3,496.0 136.8,495.9 Q137.1,495.3 137.4,495.0 Q137.6,494.7 138.1,494.4 Q138.6,494.7 139.2,494.7 Q139.8,494.8 140.3,495.3 Q140.3,495.7 140.5,495.9 Q140.7,496.1 140.9,496.3 Q141.2,496.5 141.4,496.7 Q141.6,496.9 141.7,497.3 Q141.9,497.3 141.9,497.2 Q142.0,497.1 142.2,497.2 Q142.3,497.7 142.4,497.9 Q142.6,498.1 142.8,498.6 Q142.6,499.0 142.5,499.5 Q142.4,499.9 142.0,500.1 Q141.9,500.4 142.1,500.4 Q142.3,500.4 142.4,500.6 Q142.4,501.0 142.2,501.2 Q143.2,502.7 144.0,504.5 Q144.8,506.3 145.7,507.8 Z M140.7,511.7 Q140.8,511.2 141.1,511.0 Q141.4,510.7 141.4,510.1 Q141.2,509.8 141.1,509.6 Q141.1,509.4 141.1,509.0 Q140.2,507.8 139.6,506.3 Q138.9,504.9 138.1,503.6 Q138.0,503.8 137.8,503.9 Q137.6,504.1 137.4,503.9 Q137.3,504.2 137.1,504.3 Q136.9,504.5 136.6,504.5 Q136.4,504.4 136.1,504.3 Q135.9,504.2 135.7,504.1 Q134.5,505.0 133.3,505.9 Q132.1,506.8 131.2,508.0 Q131.1,508.0 131.0,508.0 Q131.0,508.0 130.8,508.1 Q130.4,508.8 130.0,509.5 Q129.5,510.1 129.1,510.8 Q128.6,511.4 128.3,512.1 Q128.0,512.9 127.9,513.8 Q128.6,514.4 129.6,514.5 Q130.5,514.6 131.5,514.6 Q132.5,514.5 133.4,514.3 Q134.4,514.1 135.2,514.1 Q136.9,513.7 138.1,513.0 Q139.3,512.4 140.7,511.7 Z M176.9,512.7 Q176.0,514.4 174.4,515.4 Q172.8,516.3 170.9,517.0 Q169.0,517.6 166.9,518.1 Q164.8,518.6 162.9,519.4 Q162.3,519.4 161.9,519.4 Q161.5,519.4 161.1,519.5 Q160.7,519.6 160.3,519.6 Q160.0,519.7 159.5,519.7 Q159.4,519.7 159.3,519.8 Q159.3,519.9 159.2,520.0 Q158.5,520.1 158.0,520.1 Q157.4,520.1 157.0,520.1 Q156.6,520.1 156.0,520.2 Q155.5,520.4 155.1,520.3 Q152.1,520.2 150.4,518.2 Q148.7,516.1 148.4,512.6 Q148.5,512.4 148.4,512.3 Q148.3,512.3 148.2,512.2 Q148.2,511.8 148.3,511.5 Q148.4,511.2 148.3,510.8 Q149.4,508.6 150.7,506.6 Q152.1,504.7 153.9,503.3 Q154.2,503.0 154.4,502.8 Q154.6,502.5 154.8,502.3 Q155.0,502.0 155.2,501.9 Q155.5,501.7 155.8,501.6 Q156.7,500.6 157.8,499.8 Q159.0,499.0 160.3,498.3 Q161.6,497.5 162.9,496.8 Q164.2,496.0 165.2,495.1 Q165.7,495.3 165.9,495.2 Q166.1,495.1 166.3,495.2 Q166.6,495.8 167.1,496.0 Q167.6,496.3 168.1,496.6 Q168.6,496.8 169.1,497.2 Q169.5,497.5 169.8,498.1 Q169.5,498.1 169.5,498.3 Q169.6,498.5 169.6,498.7 Q169.7,498.9 169.7,499.1 Q169.7,499.2 169.4,499.2 Q169.4,499.4 169.7,499.5 Q169.9,499.5 169.9,499.7 Q169.9,499.9 169.8,500.0 Q169.7,500.1 169.8,500.4 Q169.0,500.9 168.0,501.4 Q167.0,501.9 165.9,502.5 Q164.8,503.0 163.7,503.6 Q162.5,504.3 161.4,505.1 Q160.3,505.9 159.2,506.9 Q158.1,507.9 157.0,509.0 Q155.9,510.1 155.0,511.2 Q154.1,512.4 153.4,513.5 Q153.5,513.7 153.6,513.8 Q153.7,513.9 153.8,514.1 Q155.1,514.2 156.2,514.1 Q157.3,514.0 158.5,514.2 Q158.6,514.2 158.6,514.0 Q158.7,513.8 158.8,513.8 Q161.1,513.5 163.1,513.0 Q165.1,512.5 167.2,511.9 Q166.9,511.8 166.6,511.7 Q166.3,511.6 166.1,511.5 Q165.9,511.3 166.1,511.2 Q166.3,511.0 166.5,510.9 Q165.9,510.6 165.6,510.1 Q165.2,509.6 165.2,508.8 Q165.4,508.6 165.4,508.3 Q165.4,508.0 165.2,507.8 Q165.0,507.8 164.9,507.8 Q164.9,507.9 164.9,508.0 Q164.9,508.0 164.8,508.1 Q164.8,508.2 164.6,508.1 Q164.7,507.7 164.8,507.5 Q164.9,507.2 165.0,506.9 L167.8,505.0 Q168.3,505.4 168.9,505.7 Q169.6,506.1 170.3,506.5 Q171.0,506.9 171.7,507.3 Q172.5,507.7 173.1,508.0 Q173.7,508.3 174.1,508.7 Q174.6,509.1 175.0,509.5 Q175.4,509.9 175.8,510.4 Q176.3,510.8 176.8,511.0 Q176.7,511.6 176.9,511.9 Q177.0,512.2 176.9,512.7 Z M197.9,497.2 Q197.9,497.5 197.9,497.6 Q197.9,497.7 197.9,497.9 Q197.9,498.0 197.9,498.1 Q197.9,498.3 197.9,498.6 Q197.1,499.9 196.0,500.4 Q194.9,500.9 193.6,501.2 Q192.3,501.4 190.9,501.6 Q189.6,501.9 188.2,502.7 Q187.7,502.5 187.3,502.7 Q186.8,502.9 186.0,502.8 Q185.8,503.1 185.4,503.2 Q185.1,503.3 184.7,503.4 Q184.9,503.7 184.8,504.1 Q184.8,504.5 184.9,504.8 Q186.3,504.9 188.1,504.7 Q189.8,504.6 191.5,504.5 Q191.5,504.7 191.4,504.8 Q191.3,504.8 191.4,505.0 Q191.7,505.2 191.9,505.5 Q192.2,505.8 192.5,506.1 Q192.8,506.4 193.1,506.6 Q193.4,506.7 193.8,506.7 Q194.0,507.0 194.0,507.4 Q194.1,507.8 193.9,508.2 Q193.3,508.6 192.6,509.1 Q192.0,509.6 191.3,509.9 Q190.6,510.3 189.8,510.5 Q189.0,510.8 188.0,510.7 Q187.8,510.7 187.7,510.7 Q187.6,510.7 187.4,510.6 Q187.1,510.8 186.5,510.7 Q185.9,510.6 185.6,510.8 Q185.2,510.6 184.5,510.7 Q183.9,510.7 183.4,510.5 Q182.8,511.4 182.3,512.3 Q181.7,513.3 181.3,514.4 Q182.7,514.6 183.6,514.6 Q184.5,514.5 185.3,514.4 Q186.1,514.3 187.0,514.2 Q187.9,514.1 189.2,514.2 Q190.0,513.7 191.1,513.6 Q192.2,513.4 193.1,513.1 Q193.4,513.2 193.7,513.5 Q193.9,513.8 194.2,514.1 Q194.4,514.4 194.6,514.6 Q194.9,514.8 195.2,514.7 Q195.4,514.9 195.5,515.1 Q195.5,515.3 195.6,515.5 Q195.6,515.7 195.7,515.9 Q195.8,516.0 196.0,516.0 Q195.4,517.3 194.6,518.0 Q193.9,518.7 192.8,519.1 Q191.8,519.5 190.6,519.7 Q189.4,519.9 187.9,520.2 Q187.5,520.2 187.2,520.1 Q187.0,520.0 186.7,520.0 Q185.7,520.2 184.4,520.4 Q183.2,520.6 181.8,520.5 Q180.5,520.5 179.3,520.2 Q178.0,519.9 177.3,519.1 Q176.9,518.8 176.8,518.4 Q176.7,518.1 176.3,517.9 Q176.3,517.3 176.1,516.7 Q176.0,516.0 175.9,515.3 Q175.8,514.6 175.7,513.9 Q175.6,513.2 175.8,512.7 Q175.9,512.1 176.3,511.6 Q176.7,511.1 176.5,510.5 Q176.7,510.5 176.8,510.3 Q176.8,510.1 177.1,510.1 Q177.4,509.4 177.6,508.8 Q177.9,508.1 178.2,507.5 Q178.5,506.9 178.8,506.3 Q179.1,505.6 179.4,504.9 Q178.9,504.3 178.6,503.7 Q178.3,503.1 178.2,502.5 Q178.1,501.8 178.0,501.2 Q177.9,500.5 177.7,499.8 Q178.1,499.2 178.7,498.8 Q179.3,498.4 180.0,498.2 Q180.7,497.9 181.5,497.8 Q182.3,497.6 183.2,497.4 Q184.8,496.9 186.1,496.6 Q187.4,496.3 188.6,496.1 Q189.8,496.0 191.2,495.8 Q192.5,495.6 194.2,495.3 Q194.6,495.7 194.9,495.7 Q195.1,495.3 195.3,495.5 Q195.5,495.6 195.5,495.2 Q195.9,495.9 196.5,496.4 Q197.1,496.8 197.9,497.2 Z M205.2,512.6 Q204.9,512.7 204.7,513.0 Q204.6,513.4 204.4,513.8 Q204.3,514.1 204.1,514.4 Q204.0,514.7 203.7,514.7 Q203.7,515.1 203.5,515.3 Q203.3,515.5 203.1,515.8 Q203.0,516.1 202.9,516.4 Q202.8,516.7 203.0,517.1 Q202.6,517.3 202.6,517.8 Q202.5,518.2 202.4,518.6 Q202.3,519.0 202.0,519.3 Q201.8,519.6 201.1,519.6 Q201.0,519.7 201.1,519.8 Q201.2,519.8 201.2,520.0 Q200.8,520.0 200.6,520.1 Q200.3,520.2 200.0,520.3 Q199.2,520.0 198.7,519.4 Q198.2,518.8 197.8,518.1 Q197.5,517.3 197.2,516.6 Q196.8,515.8 196.6,515.2 Q196.7,514.8 196.6,514.3 Q196.5,513.9 196.3,513.6 Q198.3,509.4 200.7,504.6 Q203.0,499.9 205.1,495.2 Q206.1,495.6 207.0,496.0 Q207.9,496.5 208.6,497.1 Q209.4,497.7 209.9,498.5 Q210.4,499.3 210.6,500.3 Q210.5,500.5 210.4,500.4 Q210.3,500.4 210.2,500.5 Q210.4,500.7 210.4,500.8 Q210.4,500.9 210.4,500.9 Q210.4,501.0 210.4,501.2 Q210.4,501.3 210.5,501.6 Q210.4,501.5 210.3,501.6 Q210.2,501.7 210.0,501.6 Q210.2,502.0 210.1,502.3 Q210.1,502.6 209.9,502.8 Q209.8,503.1 209.7,503.3 Q209.7,503.6 209.8,504.0 Q209.7,504.0 209.6,504.0 Q209.5,504.1 209.5,504.2 Q209.5,504.2 209.4,504.3 Q209.3,504.3 209.2,504.3 Q209.3,505.2 209.3,506.1 Q209.3,507.0 209.2,507.9 Q209.2,508.8 209.3,509.8 Q209.3,510.8 209.5,511.9 Q211.0,511.0 211.9,509.7 Q212.7,508.3 213.3,506.7 Q213.8,505.0 214.1,503.1 Q214.4,501.2 214.7,499.2 Q215.1,498.8 215.3,498.3 Q215.5,497.8 215.7,497.2 Q215.8,496.6 216.0,496.0 Q216.2,495.4 216.4,494.9 Q217.0,495.0 217.4,495.3 Q217.9,495.6 218.2,496.0 Q218.6,496.3 219.0,496.6 Q219.4,496.9 220.0,497.0 Q220.5,497.7 220.9,498.3 Q221.3,499.0 221.4,499.7 Q221.2,500.1 221.1,500.5 Q221.0,500.9 220.9,501.3 Q220.8,501.7 220.6,502.0 Q220.4,502.4 220.0,502.6 Q219.9,503.7 219.7,504.5 Q219.5,505.4 219.3,506.3 Q219.1,507.1 219.0,508.0 Q218.9,508.9 218.9,510.0 Q218.6,511.0 218.3,512.0 Q217.9,513.1 217.7,513.9 Q217.0,514.4 216.7,515.2 Q216.3,515.9 215.9,516.6 Q215.7,516.8 215.7,516.7 Q215.7,516.6 215.4,516.6 Q215.5,516.8 215.4,516.8 Q215.4,516.9 215.3,517.0 Q215.3,517.0 215.2,517.2 Q215.2,517.3 215.3,517.5 Q214.7,517.7 214.3,518.2 Q213.8,518.6 213.3,519.0 Q212.8,519.4 212.1,519.5 Q211.4,519.6 210.3,519.2 Q208.6,518.0 207.3,516.4 Q206.1,514.8 205.2,512.6 Z M244.0,507.8 Q244.0,508.3 244.1,508.8 Q244.2,509.2 244.4,509.6 Q244.6,510.1 244.7,510.5 Q244.9,511.0 245.0,511.4 Q245.1,512.0 245.0,512.6 Q244.9,513.3 244.7,513.9 Q244.5,514.6 244.2,515.1 Q243.8,515.6 243.4,515.8 Q242.8,516.6 242.0,517.0 Q241.2,517.4 240.5,517.9 Q240.1,518.2 239.5,518.3 Q239.0,518.5 238.4,518.6 Q238.0,518.8 237.4,519.1 Q236.7,519.4 236.1,519.6 Q235.4,519.8 234.8,519.9 Q234.1,520.0 233.7,520.0 Q232.4,520.4 231.3,520.5 Q230.1,520.7 228.6,520.4 Q227.1,520.6 225.9,520.2 Q224.7,519.9 223.7,519.2 Q222.8,518.5 222.0,517.5 Q221.3,516.5 220.9,515.4 Q220.6,513.1 221.1,511.2 Q221.5,509.3 222.5,507.7 Q223.4,506.1 224.5,504.8 Q225.7,503.4 226.8,502.1 Q227.1,502.2 227.2,502.1 Q227.3,502.0 227.5,501.8 Q227.6,501.6 227.7,501.5 Q227.9,501.3 228.1,501.3 Q228.3,500.7 228.9,500.4 Q229.4,500.1 229.8,499.5 Q230.1,499.4 230.4,499.2 Q230.6,499.1 230.8,498.9 Q231.1,498.7 231.3,498.5 Q231.6,498.3 231.9,498.2 L231.9,497.8 Q232.6,497.5 233.0,497.0 Q233.3,496.6 233.8,496.0 Q234.1,496.0 234.4,496.0 Q234.6,496.0 235.0,495.9 Q235.4,495.3 235.6,495.0 Q235.9,494.7 236.4,494.4 Q236.9,494.7 237.5,494.7 Q238.1,494.8 238.5,495.3 Q238.6,495.7 238.8,495.9 Q239.0,496.1 239.2,496.3 Q239.5,496.5 239.7,496.7 Q239.9,496.9 240.0,497.3 Q240.1,497.3 240.2,497.2 Q240.3,497.1 240.4,497.2 Q240.6,497.7 240.7,497.9 Q240.9,498.1 241.0,498.6 Q240.8,499.0 240.7,499.5 Q240.6,499.9 240.2,500.1 Q240.2,500.4 240.4,500.4 Q240.6,500.4 240.6,500.6 Q240.7,501.0 240.5,501.2 Q241.5,502.7 242.3,504.5 Q243.0,506.3 244.0,507.8 Z M238.9,511.7 Q239.1,511.2 239.4,511.0 Q239.6,510.7 239.7,510.1 Q239.5,509.8 239.4,509.6 Q239.4,509.4 239.4,509.0 Q238.5,507.8 237.8,506.3 Q237.2,504.9 236.4,503.6 Q236.3,503.8 236.1,503.9 Q235.9,504.1 235.6,503.9 Q235.6,504.2 235.4,504.3 Q235.2,504.5 234.9,504.5 Q234.7,504.4 234.4,504.3 Q234.1,504.2 233.9,504.1 Q232.8,505.0 231.6,505.9 Q230.4,506.8 229.5,508.0 Q229.3,508.0 229.3,508.0 Q229.2,508.0 229.0,508.1 Q228.7,508.8 228.3,509.5 Q227.8,510.1 227.3,510.8 Q226.9,511.4 226.6,512.1 Q226.2,512.9 226.2,513.8 Q226.9,514.4 227.8,514.5 Q228.8,514.6 229.8,514.6 Q230.7,514.5 231.7,514.3 Q232.7,514.1 233.5,514.1 Q235.2,513.7 236.4,513.0 Q237.6,512.4 238.9,511.7 Z M269.6,496.9 Q269.6,497.8 269.8,498.5 Q270.1,499.1 270.3,499.7 Q270.5,500.3 270.7,500.8 Q270.9,501.4 270.9,502.2 Q270.6,503.2 270.5,504.1 Q270.3,505.0 270.2,506.0 Q269.5,507.4 268.9,508.5 Q268.3,509.6 267.9,510.4 Q267.7,510.6 267.6,510.9 Q267.5,511.1 267.3,511.4 Q267.2,511.5 267.1,511.8 Q267.0,512.0 266.9,512.1 L266.1,511.8 L265.9,512.8 L265.3,513.0 L264.9,513.5 Q264.2,514.8 263.3,515.7 Q262.5,516.6 261.4,517.3 Q260.3,518.1 259.0,518.7 Q257.6,519.3 255.9,520.0 Q255.2,519.9 254.7,519.9 Q254.2,519.9 253.8,519.8 Q253.0,519.8 251.8,519.7 Q251.7,519.4 251.5,519.3 Q251.2,519.2 251.0,519.2 Q250.3,518.8 250.0,518.2 Q249.7,517.6 249.3,516.8 Q249.1,516.4 248.9,516.0 Q248.7,515.6 248.5,515.2 L249.2,515.0 L248.3,514.0 Q248.2,513.9 248.1,513.8 Q248.0,513.7 247.9,513.6 L247.8,512.9 Q247.7,510.1 247.7,507.8 Q247.8,505.5 248.4,503.7 L248.4,503.2 Q248.5,502.3 248.6,501.7 Q248.7,501.2 248.8,500.6 Q248.9,499.7 249.2,499.0 Q249.7,498.8 250.0,498.5 Q250.3,498.1 250.5,497.9 Q251.1,497.8 251.3,498.0 Q251.5,498.2 251.7,498.7 Q251.9,499.0 252.2,499.5 Q252.5,499.9 253.1,500.2 Q253.2,500.5 253.3,500.8 Q253.5,501.2 253.6,501.6 Q254.0,502.3 254.2,503.0 Q254.5,503.8 254.5,504.5 Q254.1,505.2 253.9,506.3 Q253.7,507.3 253.6,508.3 Q253.5,509.3 253.6,510.3 Q253.8,511.2 254.0,511.9 L254.2,512.4 L254.9,512.3 Q256.1,512.0 257.1,511.6 Q258.1,511.2 259.0,510.7 Q259.8,510.2 260.6,509.5 Q261.4,508.8 262.2,507.8 Q263.1,506.9 263.7,505.7 Q264.3,504.5 264.8,503.2 Q265.2,501.9 265.4,500.6 Q265.6,499.4 265.7,498.2 Q266.4,498.0 266.4,497.3 L266.3,496.8 Q266.2,496.6 266.3,496.2 Q266.6,495.5 267.5,495.1 Q268.1,495.5 268.6,496.0 Q269.1,496.4 269.6,496.9 Z M270.6,501.8 Q270.9,500.9 271.5,500.3 Q272.1,499.7 272.9,499.3 Q273.6,498.8 274.4,498.6 Q275.2,498.3 276.0,498.1 Q277.6,497.4 279.4,496.8 Q281.3,496.1 283.2,495.6 Q285.1,495.2 287.2,495.0 Q289.2,494.9 291.4,495.5 Q291.5,495.9 291.8,496.3 Q292.0,496.6 292.3,497.0 Q292.6,497.4 292.8,497.7 Q293.0,498.1 293.0,498.4 Q293.4,498.8 293.6,499.2 Q293.9,499.6 293.7,500.3 Q293.3,500.7 292.9,500.9 Q292.6,501.2 292.1,501.4 Q290.6,501.0 289.1,501.2 Q287.5,501.3 286.3,501.4 Q285.9,501.0 285.4,501.0 Q284.9,501.0 284.4,501.2 Q283.8,501.3 283.3,501.5 Q282.7,501.6 282.3,501.6 Q281.8,501.9 281.3,502.0 Q280.7,502.1 280.0,502.2 Q279.9,502.4 280.1,502.4 Q280.2,502.5 280.1,502.7 Q280.3,503.0 280.7,503.1 Q281.1,503.2 281.5,503.3 Q282.0,503.5 282.3,503.6 Q282.6,503.8 282.7,504.2 Q283.3,504.2 283.8,504.5 Q284.2,504.8 284.5,505.2 Q284.8,505.6 284.9,506.1 Q285.1,506.5 285.1,506.9 Q285.2,507.2 285.4,507.2 Q285.5,507.2 285.7,507.4 Q285.9,507.9 286.3,508.4 Q286.8,509.0 287.1,509.6 Q287.2,510.6 287.2,511.4 Q287.3,512.2 287.0,513.0 Q286.3,514.5 285.3,515.7 Q284.2,516.9 282.8,517.8 Q281.5,518.7 279.9,519.4 Q278.4,520.0 276.9,520.4 Q276.8,520.4 276.6,520.4 Q276.5,520.5 276.5,520.2 Q276.2,520.5 275.8,520.6 Q275.4,520.7 275.0,520.7 Q274.6,520.6 274.1,520.6 Q273.6,520.6 273.2,520.6 Q272.9,520.4 272.7,520.1 Q272.5,519.8 272.4,519.4 Q272.2,519.4 272.2,519.2 Q272.2,519.0 272.0,519.0 Q272.3,518.6 272.3,518.6 Q272.2,518.5 272.1,518.5 Q272.0,518.4 272.0,518.4 Q271.9,518.3 271.9,518.2 Q272.1,517.9 272.0,517.4 Q272.0,517.0 272.0,516.6 Q271.9,516.1 272.0,515.7 Q272.1,515.3 272.6,515.1 Q274.0,515.2 275.2,515.0 Q276.5,514.7 277.5,514.2 Q278.6,513.7 279.6,513.2 Q280.6,512.6 281.6,512.1 Q281.7,511.8 281.9,511.5 Q282.2,511.3 282.4,511.1 Q282.7,510.9 282.9,510.6 Q283.1,510.4 283.1,510.0 Q283.2,509.7 283.0,509.7 Q282.8,509.6 282.8,509.4 L282.4,509.3 Q281.6,508.8 280.6,508.5 Q279.7,508.2 279.0,507.8 Q278.5,508.1 278.1,508.0 Q277.7,507.8 277.1,507.7 Q275.8,507.6 274.5,507.4 Q273.2,507.2 272.0,506.7 Q272.0,506.5 271.8,506.3 Q271.7,506.2 271.4,506.3 Q271.1,505.9 270.9,505.6 Q270.7,505.3 270.5,505.0 Q270.5,504.5 270.6,504.1 Q270.6,503.8 270.3,503.5 Q270.5,502.9 270.6,502.6 Q270.7,502.3 270.6,501.8 Z" fill="#129E8C"/>
<text x="54" y="542" font-size="14.5" fill="#4F7F78" font-style="italic">derived views, read out</text>
<path d="M510.8,402.0 L525.0,403.3 L524.5,403.9 L532.3,402.2 L537.1,405.8 L541.3,410.7 L545.8,413.2 L547.5,419.5 L548.6,422.4 L548.5,439.1 L545.7,456.3 L548.2,457.6 L545.8,462.5 L542.6,468.1 L540.1,471.0 L535.2,472.6 L529.8,476.6 L526.2,478.1 L511.2,476.7 L495.2,476.0 L495.3,476.2 L490.1,475.9 L483.3,474.2 L477.7,469.4 L476.0,467.2 L472.2,461.1 L472.6,457.0 L474.7,438.6 L473.1,422.7 L474.0,425.5 L474.4,418.8 L474.3,412.1 L478.3,407.7 L482.3,407.4 L488.0,405.1 L494.9,403.9 Z" fill="#F7FDFC" stroke="none"/><path d="M510.8,402.0 L525.0,403.3 L524.5,403.9 L532.3,402.2 L537.1,405.8 L541.3,410.7 L545.8,413.2 L547.5,419.5 L548.6,422.4 L548.5,439.1 L545.7,456.3 L548.2,457.6 L545.8,462.5 L542.6,468.1 L540.1,471.0 L535.2,472.6 L529.8,476.6 L526.2,478.1 L511.2,476.7 L495.2,476.0 L495.3,476.2 L490.1,475.9 L483.3,474.2 L477.7,469.4 L476.0,467.2 L472.2,461.1 L472.6,457.0 L474.7,438.6 L473.1,422.7 L474.0,425.5 L474.4,418.8 L474.3,412.1 L478.3,407.7 L482.3,407.4 L488.0,405.1 L494.9,403.9 Z" fill="none" stroke="#129E8C" stroke-width="3.5" stroke-linejoin="round" stroke-linecap="round"/><path d="M511.4,402.1 L527.0,402.3 L526.8,402.5 L531.8,404.1 L534.8,406.5 L539.7,409.2 L545.3,414.0 L547.1,417.9 L547.0,422.9 L547.0,438.8 L548.4,455.2 L547.4,456.1 L546.0,462.8 L544.7,467.4 L539.8,469.7 L535.0,475.2 L531.8,474.9 L525.9,477.1 L509.9,477.4 L495.6,476.6 L494.5,477.9 L489.7,476.0 L483.6,475.0 L479.7,471.8 L476.0,465.6 L474.1,461.5 L473.7,455.9 L473.2,440.8 L472.3,423.6 L471.6,423.7 L472.6,419.0 L474.7,413.0 L478.9,410.6 L482.8,405.8 L488.9,404.3 L495.5,403.3 Z" fill="none" stroke="#129E8C" stroke-width="2.1" stroke-linejoin="round" stroke-linecap="round" opacity="0.5"/>
<g transform="translate(510,439) scale(1.0)" stroke="#129E8C" stroke-width="3" fill="none" stroke-linecap="round" stroke-linejoin="round"><rect x="-15" y="-13" width="30" height="26" rx="3"/><polyline points="-10,8 -3,-2 3,3 10,-8"/></g>
<text x="510" y="496" font-size="15" font-weight="700" fill="#129E8C" text-anchor="middle">Plots</text>
<path d="M508.5,271.7 L510.4,284.7 L508.5,298.6 L509.7,310.4 L509.6,325.7 L508.5,335.9 L508.1,348.8 L508.4,364.6 L509.3,377.4 L508.5,389.8 L510.0,401.8" fill="none" stroke="#129E8C" stroke-width="3" stroke-linecap="round" stroke-dasharray="1 8"/><path d="M504.5,393.9 L510.0,401.0 L513.4,392.7" fill="none" stroke="#129E8C" stroke-width="3" stroke-linecap="round" stroke-linejoin="round"/>
<path d="M729.2,403.1 L746.7,404.6 L745.6,403.1 L751.0,403.9 L757.7,407.5 L762.3,410.6 L762.7,412.6 L767.8,418.8 L765.8,424.4 L768.5,439.1 L766.5,454.9 L768.6,455.0 L765.5,460.0 L762.8,464.9 L759.2,470.9 L755.8,473.7 L751.7,475.7 L746.8,476.1 L730.0,476.6 L714.8,476.8 L713.2,478.5 L709.5,475.8 L704.1,474.2 L697.6,469.9 L696.3,464.8 L692.1,460.6 L692.9,454.3 L694.6,441.7 L693.9,425.2 L694.4,425.2 L693.4,417.4 L695.6,414.0 L700.3,410.0 L702.0,404.6 L708.2,402.9 L713.5,404.0 Z" fill="#F7FDFC" stroke="none"/><path d="M729.2,403.1 L746.7,404.6 L745.6,403.1 L751.0,403.9 L757.7,407.5 L762.3,410.6 L762.7,412.6 L767.8,418.8 L765.8,424.4 L768.5,439.1 L766.5,454.9 L768.6,455.0 L765.5,460.0 L762.8,464.9 L759.2,470.9 L755.8,473.7 L751.7,475.7 L746.8,476.1 L730.0,476.6 L714.8,476.8 L713.2,478.5 L709.5,475.8 L704.1,474.2 L697.6,469.9 L696.3,464.8 L692.1,460.6 L692.9,454.3 L694.6,441.7 L693.9,425.2 L694.4,425.2 L693.4,417.4 L695.6,414.0 L700.3,410.0 L702.0,404.6 L708.2,402.9 L713.5,404.0 Z" fill="none" stroke="#129E8C" stroke-width="3.5" stroke-linejoin="round" stroke-linecap="round"/><path d="M731.4,402.0 L747.1,401.5 L746.1,402.8 L749.9,404.8 L758.1,404.9 L761.1,408.5 L764.3,414.3 L765.0,419.9 L767.3,424.3 L765.9,439.0 L766.3,456.9 L767.9,454.7 L766.9,459.9 L764.9,466.7 L759.2,472.0 L755.1,474.4 L752.4,477.8 L744.6,477.2 L728.9,476.1 L712.8,477.5 L715.4,477.1 L709.0,476.6 L703.1,474.2 L699.0,471.2 L695.7,467.4 L694.7,460.1 L694.2,456.9 L691.9,440.9 L691.6,422.4 L694.4,425.2 L695.1,420.0 L697.1,412.6 L698.6,408.2 L703.8,406.3 L709.0,403.2 L714.6,403.4 Z" fill="none" stroke="#129E8C" stroke-width="2.1" stroke-linejoin="round" stroke-linecap="round" opacity="0.5"/>
<g transform="translate(730,439) scale(1.0)" stroke="#129E8C" stroke-width="3" fill="none" stroke-linecap="round" stroke-linejoin="round"><path d="M-15,-9 a4,4 0 0 1 4,-4 h22 a4,4 0 0 1 4,4 v13 a4,4 0 0 1 -4,4 h-13 l-8,7 v-7 a4,4 0 0 1 -4,-4 z"/><line x1="-9" y1="-5" x2="11" y2="-5"/><line x1="-9" y1="2" x2="5" y2="2"/></g>
<text x="730" y="496" font-size="15" font-weight="700" fill="#129E8C" text-anchor="middle">Captions</text>
<path d="M729.4,288.1 L729.8,299.0 L730.0,310.5 L728.2,321.9 L728.1,331.8 L729.1,346.6 L729.9,356.1 L731.7,368.8 L730.3,377.4 L730.1,389.2 L731.8,399.1" fill="none" stroke="#129E8C" stroke-width="3" stroke-linecap="round" stroke-dasharray="1 8"/><path d="M725.6,393.2 L730.0,401.0 L734.6,393.2" fill="none" stroke="#129E8C" stroke-width="3" stroke-linecap="round" stroke-linejoin="round"/>
<path d="M950.6,401.6 L966.4,404.2 L967.1,403.1 L971.9,403.3 L976.6,404.5 L981.5,409.5 L983.4,413.1 L987.1,418.4 L988.6,425.6 L988.2,438.6 L985.6,455.3 L986.5,456.7 L987.4,461.6 L984.7,466.7 L979.3,470.9 L975.5,473.9 L969.8,476.8 L967.4,475.5 L950.3,475.4 L933.5,475.8 L935.2,477.8 L929.9,475.3 L924.2,474.9 L919.2,472.3 L916.2,465.8 L914.5,461.4 L912.0,456.4 L911.5,439.8 L913.2,422.3 L913.5,422.6 L914.2,418.0 L914.2,415.2 L917.7,408.0 L923.5,404.9 L928.7,403.6 L934.3,403.1 Z" fill="#F7FDFC" stroke="none"/><path d="M950.6,401.6 L966.4,404.2 L967.1,403.1 L971.9,403.3 L976.6,404.5 L981.5,409.5 L983.4,413.1 L987.1,418.4 L988.6,425.6 L988.2,438.6 L985.6,455.3 L986.5,456.7 L987.4,461.6 L984.7,466.7 L979.3,470.9 L975.5,473.9 L969.8,476.8 L967.4,475.5 L950.3,475.4 L933.5,475.8 L935.2,477.8 L929.9,475.3 L924.2,474.9 L919.2,472.3 L916.2,465.8 L914.5,461.4 L912.0,456.4 L911.5,439.8 L913.2,422.3 L913.5,422.6 L914.2,418.0 L914.2,415.2 L917.7,408.0 L923.5,404.9 L928.7,403.6 L934.3,403.1 Z" fill="none" stroke="#129E8C" stroke-width="3.5" stroke-linejoin="round" stroke-linecap="round"/><path d="M950.3,403.1 L965.8,403.9 L965.7,401.8 L971.9,402.2 L978.2,406.5 L979.3,408.1 L985.8,414.5 L986.7,418.2 L988.1,425.0 L985.5,440.9 L986.2,456.9 L985.4,457.0 L985.2,462.7 L985.7,466.5 L979.8,470.0 L977.8,474.8 L972.3,477.3 L965.2,477.5 L948.5,477.1 L934.1,475.4 L934.1,477.5 L927.7,475.7 L924.3,475.6 L918.0,469.2 L916.4,466.4 L912.3,463.0 L912.1,456.4 L912.0,441.6 L912.9,423.1 L914.1,423.3 L912.5,418.2 L917.3,412.3 L920.2,409.1 L925.0,405.8 L928.1,404.5 L934.2,401.5 Z" fill="none" stroke="#129E8C" stroke-width="2.1" stroke-linejoin="round" stroke-linecap="round" opacity="0.5"/>
<g transform="translate(950,439) scale(1.0)" fill="#129E8C" stroke="none"><rect x="-14" y="-4.5" width="4" height="9" rx="2"/><rect x="-8" y="-10.0" width="4" height="20" rx="2"/><rect x="-2" y="-7.0" width="4" height="14" rx="2"/><rect x="4" y="-12.0" width="4" height="24" rx="2"/><rect x="10" y="-5.5" width="4" height="11" rx="2"/></g>
<text x="950" y="496" font-size="15" font-weight="700" fill="#129E8C" text-anchor="middle">Spectra</text>
<path d="M951.7,267.1 L950.2,281.7 L951.8,294.6 L949.8,308.6 L949.5,323.2 L951.5,335.7 L948.2,350.0 L950.2,361.7 L950.2,374.6 L951.7,386.8 L948.6,403.0" fill="none" stroke="#129E8C" stroke-width="3" stroke-linecap="round" stroke-dasharray="1 8"/><path d="M946.5,392.7 L950.0,401.0 L955.4,393.8" fill="none" stroke="#129E8C" stroke-width="3" stroke-linecap="round" stroke-linejoin="round"/>
<path d="M151.5,207.5 L160.9,207.5 L174.6,207.8 L185.0,207.0 L195.8,207.6 L194.9,207.2 L200.5,209.9 L207.0,211.0 L212.4,215.0 L214.4,220.2 L217.4,225.7 L217.3,229.6 L216.7,244.9 L218.4,258.9 L217.6,273.3 L218.8,272.9 L215.9,278.7 L216.4,283.7 L211.4,287.9 L206.3,290.1 L202.9,293.7 L197.1,293.2 L184.5,295.0 L172.5,294.1 L162.3,293.2 L152.0,294.5 L139.7,294.8 L141.4,292.8 L135.8,292.6 L128.8,290.2 L123.1,287.8 L119.8,283.3 L120.1,278.6 L117.0,271.1 L119.1,258.1 L119.5,243.6 L118.2,229.7 L116.8,230.0 L118.8,223.9 L122.4,219.6 L123.5,213.0 L127.8,209.9 L133.2,207.4 L140.8,207.4 Z" fill="#1B2742" stroke="none"/><path d="M151.5,207.5 L160.9,207.5 L174.6,207.8 L185.0,207.0 L195.8,207.6 L194.9,207.2 L200.5,209.9 L207.0,211.0 L212.4,215.0 L214.4,220.2 L217.4,225.7 L217.3,229.6 L216.7,244.9 L218.4,258.9 L217.6,273.3 L218.8,272.9 L215.9,278.7 L216.4,283.7 L211.4,287.9 L206.3,290.1 L202.9,293.7 L197.1,293.2 L184.5,295.0 L172.5,294.1 L162.3,293.2 L152.0,294.5 L139.7,294.8 L141.4,292.8 L135.8,292.6 L128.8,290.2 L123.1,287.8 L119.8,283.3 L120.1,278.6 L117.0,271.1 L119.1,258.1 L119.5,243.6 L118.2,229.7 L116.8,230.0 L118.8,223.9 L122.4,219.6 L123.5,213.0 L127.8,209.9 L133.2,207.4 L140.8,207.4 Z" fill="none" stroke="#222B36" stroke-width="4" stroke-linejoin="round" stroke-linecap="round"/><path d="M149.8,208.6 L160.9,207.2 L172.6,206.8 L183.5,206.6 L195.6,208.1 L197.0,206.6 L200.7,209.2 L207.6,211.4 L212.4,213.0 L214.2,218.4 L218.4,224.0 L218.1,230.8 L218.8,243.2 L218.4,257.3 L216.7,272.6 L217.5,270.8 L218.3,278.1 L215.9,282.9 L212.7,287.1 L207.4,292.2 L203.2,292.5 L196.4,295.4 L186.2,293.0 L173.9,293.5 L161.0,293.9 L152.1,294.5 L141.5,294.2 L140.2,293.4 L133.9,293.4 L128.0,292.0 L124.9,286.1 L121.4,283.2 L117.4,277.5 L117.8,272.0 L118.4,258.1 L117.5,245.0 L118.6,230.4 L118.0,231.4 L118.4,223.3 L120.2,219.6 L123.1,214.4 L128.0,210.9 L133.6,210.0 L140.5,208.1 Z" fill="none" stroke="#222B36" stroke-width="2.4" stroke-linejoin="round" stroke-linecap="round" opacity="0.5"/>
<line x1="168" y1="208" x2="168" y2="192" stroke="#222B36" stroke-width="4" stroke-linecap="round"/><circle cx="168" cy="188" r="6" fill="#FFD166"/>
<circle cx="151" cy="237" r="8" fill="#7FE9D6"/><circle cx="185" cy="237" r="8" fill="#7FE9D6"/>
<circle cx="154" cy="234" r="2.5" fill="#fff"/><circle cx="188" cy="234" r="2.5" fill="#fff"/>
<polyline points="140,268 151,259 161,266 172,253 183,261 196,250" fill="none" stroke="#FFD166" stroke-width="3.5" stroke-linecap="round" stroke-linejoin="round"/>
<line x1="148" y1="294" x2="148" y2="302" stroke="#222B36" stroke-width="6" stroke-linecap="round"/><line x1="188" y1="294" x2="188" y2="302" stroke="#222B36" stroke-width="6" stroke-linecap="round"/>
<path d="M1085,141 l3,7 l7,3 l-7,3 l-3,7 l-3,-7 l-7,-3 l7,-3 z" fill="#E8731C" opacity="0.8"/>
<path d="M1090,461 l3,7 l7,3 l-7,3 l-3,7 l-3,-7 l-7,-3 l7,-3 z" fill="#5B86E5" opacity="0.8"/>
<path d="M300,461 l3,7 l7,3 l-7,3 l-3,7 l-3,-7 l-7,-3 l7,-3 z" fill="#129E8C" opacity="0.8"/>
</svg>